<?xml version="1.0" encoding="UTF-8" standalone="no"?>
<!-- Created with Inkscape (http://www.inkscape.org/) -->

<svg
   xmlns:dc="http://purl.org/dc/elements/1.1/"
   xmlns:cc="http://creativecommons.org/ns#"
   xmlns:rdf="http://www.w3.org/1999/02/22-rdf-syntax-ns#"
   xmlns:svg="http://www.w3.org/2000/svg"
   xmlns="http://www.w3.org/2000/svg"
   xmlns:xlink="http://www.w3.org/1999/xlink"
   xmlns:sodipodi="http://sodipodi.sourceforge.net/DTD/sodipodi-0.dtd"
   xmlns:inkscape="http://www.inkscape.org/namespaces/inkscape"
   width="1200.3622"
   height="400.09448"
   viewBox="0 0 1200.3622 400.09448"
   id="svg2"
   version="1.1"
   inkscape:version="0.91 r13725"
   sodipodi:docname="drawing.svg">
  <defs
     id="defs4">
    <inkscape:path-effect
       fuse_tolerance="0"
       vertical_pattern="false"
       prop_units="false"
       tang_offset="0"
       normal_offset="0"
       spacing="0"
       scale_y_rel="false"
       prop_scale="1"
       copytype="single_stretched"
       pattern="m -227.28432,513.87679 1,0"
       is_visible="true"
       id="path-effect4221"
       effect="skeletal" />
    <inkscape:path-effect
       effect="skeletal"
       id="path-effect4205"
       is_visible="true"
       pattern="m -227.28432,513.87679 1,0"
       copytype="single_stretched"
       prop_scale="1"
       scale_y_rel="false"
       spacing="0"
       normal_offset="0"
       tang_offset="0"
       prop_units="false"
       vertical_pattern="false"
       fuse_tolerance="0" />
    <linearGradient
       inkscape:collect="always"
       id="linearGradient4189">
      <stop
         style="stop-color:#22b1ee;stop-opacity:1;"
         offset="0"
         id="stop4191" />
      <stop
         style="stop-color:#22b1ee;stop-opacity:0;"
         offset="1"
         id="stop4193" />
    </linearGradient>
    <linearGradient
       inkscape:collect="always"
       id="linearGradient4169">
      <stop
         style="stop-color:#2d388a;stop-opacity:1;"
         offset="0"
         id="stop4171" />
      <stop
         style="stop-color:#2d388a;stop-opacity:0;"
         offset="1"
         id="stop4173" />
    </linearGradient>
    <linearGradient
       inkscape:collect="always"
       xlink:href="#linearGradient4169"
       id="linearGradient4175"
       x1="170"
       y1="840.93365"
       x2="285.71426"
       y2="840.93359"
       gradientUnits="userSpaceOnUse" />
    <linearGradient
       inkscape:collect="always"
       xlink:href="#linearGradient4189"
       id="linearGradient4195"
       x1="-424.57739"
       y1="-846.61908"
       x2="-290.34064"
       y2="-842.33246"
       gradientUnits="userSpaceOnUse"
       gradientTransform="translate(131.39428,4.1444709)" />
    <linearGradient
       inkscape:collect="always"
       xlink:href="#linearGradient4169"
       id="linearGradient4201"
       gradientUnits="userSpaceOnUse"
       x1="160"
       y1="839.50507"
       x2="359.99997"
       y2="846.64789"
       gradientTransform="translate(12.857143,1.4285714)" />
    <inkscape:path-effect
       fuse_tolerance="0"
       vertical_pattern="false"
       prop_units="false"
       tang_offset="0"
       normal_offset="0"
       spacing="0"
       scale_y_rel="false"
       prop_scale="1"
       copytype="single_stretched"
       pattern="m -323.85287,494.68389 1,0"
       is_visible="true"
       id="path-effect4221-2"
       effect="skeletal" />
    <inkscape:path-effect
       fuse_tolerance="0"
       vertical_pattern="false"
       prop_units="false"
       tang_offset="0"
       normal_offset="0"
       spacing="0"
       scale_y_rel="false"
       prop_scale="1"
       copytype="single_stretched"
       pattern="m -126.87823,567.00877 1,0"
       is_visible="true"
       id="path-effect4221-6"
       effect="skeletal" />
    <inkscape:path-effect
       fuse_tolerance="0"
       vertical_pattern="false"
       prop_units="false"
       tang_offset="0"
       normal_offset="0"
       spacing="0"
       scale_y_rel="false"
       prop_scale="1"
       copytype="single_stretched"
       pattern="m 10.502521,927.63323 1,0"
       is_visible="true"
       id="path-effect4221-6-4"
       effect="skeletal" />
    <inkscape:path-effect
       fuse_tolerance="0"
       vertical_pattern="false"
       prop_units="false"
       tang_offset="0"
       normal_offset="0"
       spacing="0"
       scale_y_rel="false"
       prop_scale="1"
       copytype="single_stretched"
       pattern="m -186.47212,855.30835 1,0"
       is_visible="true"
       id="path-effect4221-2-5"
       effect="skeletal" />
    <inkscape:path-effect
       fuse_tolerance="0"
       vertical_pattern="false"
       prop_units="false"
       tang_offset="0"
       normal_offset="0"
       spacing="0"
       scale_y_rel="false"
       prop_scale="1"
       copytype="single_stretched"
       pattern="m -89.903569,874.50125 1,0"
       is_visible="true"
       id="path-effect4221-8"
       effect="skeletal" />
    <inkscape:path-effect
       effect="skeletal"
       id="path-effect4205-9"
       is_visible="true"
       pattern="m -89.903569,874.50125 1,0"
       copytype="single_stretched"
       prop_scale="1"
       scale_y_rel="false"
       spacing="0"
       normal_offset="0"
       tang_offset="0"
       prop_units="false"
       vertical_pattern="false"
       fuse_tolerance="0" />
  </defs>
  <sodipodi:namedview
     id="base"
     pagecolor="#ffffff"
     bordercolor="#666666"
     borderopacity="1.0"
     inkscape:pageopacity="0.0"
     inkscape:pageshadow="2"
     inkscape:zoom="0.49497475"
     inkscape:cx="674.97153"
     inkscape:cy="-50.956496"
     inkscape:document-units="px"
     inkscape:current-layer="layer1"
     showgrid="false"
     units="px"
     inkscape:window-width="1366"
     inkscape:window-height="705"
     inkscape:window-x="-8"
     inkscape:window-y="-8"
     inkscape:window-maximized="1">
    <inkscape:grid
       type="xygrid"
       id="grid4207" />
  </sodipodi:namedview>
  <metadata
     id="metadata7">
    <rdf:RDF>
      <cc:Work
         rdf:about="">
        <dc:format>image/svg+xml</dc:format>
        <dc:type
           rdf:resource="http://purl.org/dc/dcmitype/StillImage" />
        <dc:title></dc:title>
      </cc:Work>
    </rdf:RDF>
  </metadata>
  <g
     inkscape:label="Layer 1"
     inkscape:groupmode="layer"
     id="layer1"
     transform="translate(0,-652.26769)">
    <text
       xml:space="preserve"
       style="font-style:normal;font-weight:normal;font-size:173.38682556px;line-height:125%;font-family:sans-serif;letter-spacing:0px;word-spacing:0px;fill:#000000;fill-opacity:1;stroke:none;stroke-width:1px;stroke-linecap:butt;stroke-linejoin:miter;stroke-opacity:1"
       x="457.1936"
       y="751.53223"
       id="text4136"
       sodipodi:linespacing="125%"
       transform="scale(0.81253105,1.2307222)"><tspan
         sodipodi:role="line"
         id="tspan4138"
         x="457.1936"
         y="751.53223"
         style="font-style:normal;font-variant:normal;font-weight:bold;font-stretch:normal;font-family:sans-serif;-inkscape-font-specification:'sans-serif Bold';letter-spacing:5.12873888px;word-spacing:0px"
         dy="0"
         dx="0">RyderHub</tspan></text>
    <path
       style="opacity:1;fill:url(#linearGradient4175);fill-opacity:1;fill-rule:evenodd;stroke:none;stroke-width:1.546;stroke-miterlimit:4;stroke-dasharray:none;stroke-opacity:1"
       id="path4150"
       sodipodi:type="arc"
       sodipodi:cx="201.42857"
       sodipodi:cy="839.50507"
       sodipodi:rx="140"
       sodipodi:ry="138.57143"
       sodipodi:start="3.5702979"
       sodipodi:end="3.5672261"
       sodipodi:open="true"
       d="M 74.097911,781.90182 A 140,138.57143 0 0 1 259.52787,713.4295 140,138.57143 0 0 1 328.84847,896.91468 140,138.57143 0 0 1 143.52498,965.66881 140,138.57143 0 0 1 73.919742,782.28923" />
    <path
       d="m -330.51137,-900.56767 a 140,138.57143 0 0 1 185.42996,-68.47231 140,138.57143 0 0 1 69.320597,183.48517 140,138.57143 0 0 1 -185.323487,68.75414 140,138.57143 0 0 1 -69.60524,-183.37958"
       sodipodi:open="true"
       sodipodi:end="3.5672261"
       sodipodi:start="3.5702979"
       sodipodi:ry="138.57143"
       sodipodi:rx="140"
       sodipodi:cy="-842.96442"
       sodipodi:cx="-203.18071"
       sodipodi:type="arc"
       id="path4177"
       style="opacity:1;fill:url(#linearGradient4195);fill-opacity:1;fill-rule:evenodd;stroke:none;stroke-width:1.546;stroke-miterlimit:4;stroke-dasharray:none;stroke-opacity:1"
       transform="matrix(-0.99995202,0.00979593,-0.00979593,-0.99995202,0,0)" />
    <path
       d="M 86.955058,783.3304 A 140,138.57143 0 0 1 272.38502,714.85809 140,138.57143 0 0 1 341.70562,898.34327 140,138.57143 0 0 1 156.38213,967.0974 140,138.57143 0 0 1 86.776889,783.71782"
       sodipodi:open="true"
       sodipodi:end="3.5672261"
       sodipodi:start="3.5702979"
       sodipodi:ry="138.57143"
       sodipodi:rx="140"
       sodipodi:cy="840.93365"
       sodipodi:cx="214.28572"
       sodipodi:type="arc"
       id="path4197"
       style="opacity:1;fill:url(#linearGradient4201);fill-opacity:1;fill-rule:evenodd;stroke:none;stroke-width:1.546;stroke-miterlimit:4;stroke-dasharray:none;stroke-opacity:1" />
    <path
       style="fill:#ffffff;fill-opacity:1;fill-rule:evenodd;stroke:none;stroke-width:1px;stroke-linecap:butt;stroke-linejoin:miter;stroke-opacity:1"
       d="m 113.75845,919.99732 c 60.03161,0 120.06323,0 180.09484,0 0.0116,-0.003 0.0234,-0.007 0.0349,-0.0101 0.0321,-0.009 0.064,-0.0193 0.096,-0.0293 l 0,0 c 0.1206,-0.0379 0.24033,-0.0785 0.35947,-0.1207 l 1e-5,0 0,0 c 0,0 2e-5,-10e-6 2e-5,-10e-6 0.43399,-0.15383 0.86016,-0.32934 1.27933,-0.51989 0,0 0,0 1e-5,0 1.39789,-0.63548 2.71899,-1.44079 3.92111,-2.39623 l 0,-10e-6 10e-6,0 0,0 c 3.6796,-2.92456 5.95307,-7.46801 6.25842,-12.15835 l 0,-1e-5 c 0,0 0,-10e-6 0,-10e-6 0.1716,-2.63593 -0.31384,-5.32825 -1.52491,-7.67578 -0.99827,-1.93503 -2.44884,-3.61901 -4.13096,-5.00152 -1e-5,0 -1e-5,0 -1e-5,-1e-5 -1.30993,-1.0766 -2.75776,-1.98261 -4.28573,-2.71765 -0.47017,-0.22618 -0.94817,-0.43635 -1.43486,-0.62437 l 0,0 c 0,0 -2e-5,0 -2e-5,0 -0.13469,-0.052 -0.27003,-0.10237 -0.40636,-0.14991 -0.0361,-0.0126 -0.0724,-0.025 -0.10867,-0.0371 -0.0129,-0.004 -0.0263,-0.009 -0.0393,-0.0128 l -179.76542,-0.97536 c -1.98503,1.05106 -3.96999,2.10211 -5.95495,3.15315 0,0 -1e-5,10e-6 -2e-5,10e-6 -3.74712,3.05644 -5.65483,8.02832 -5.38199,12.85619 0,10e-6 1e-5,10e-6 1e-5,2e-5 0.27526,4.87064 2.19772,9.72322 5.75697,13.05948 1.74401,1.12009 3.48801,2.24017 5.23202,3.36026 5e-5,10e-6 7e-5,2e-5 7e-5,2e-5 z"
       id="path4203"
       inkscape:path-effect="#path-effect4205"
       inkscape:original-d="m 113.75845,919.99732 180.09484,0 c 0,0 11.1592,-3.09879 11.94926,-15.23466 0.79462,-12.20596 -11.93085,-16.21913 -11.93085,-16.21913 l -179.76536,-0.97534 c 0,0 -12.06955,3.04641 -11.33696,16.00935 0.73261,12.96297 10.98907,16.41978 10.98907,16.41978 z"
       inkscape:connector-curvature="0"
       sodipodi:nodetypes="ccsccsc" />
    <path
       sodipodi:nodetypes="ccsccsc"
       inkscape:connector-curvature="0"
       inkscape:original-d="m 190.5308,753.14851 0.0221,155.00556 c 0,0 2.62831,9.60431 12.91629,10.28318 10.34739,0.68291 13.7479,-10.27017 13.7479,-10.27017 l 0.80479,-154.72203 c 0,0 -2.58401,-10.38786 -13.57294,-9.75615 -10.98898,0.6317 -13.91815,9.45961 -13.91815,9.45961 z"
       inkscape:path-effect="#path-effect4221"
       id="path4219"
       d="m 190.5308,753.14851 c 0.007,51.66852 0.0147,103.33704 0.0221,155.00556 0.003,0.0102 0.006,0.0204 0.009,0.0305 0.008,0.0277 0.0164,0.0554 0.025,0.0829 0.0322,0.10396 0.0667,0.20719 0.10259,0.30993 0,0 1e-5,10e-6 1e-5,10e-6 0.13052,0.37356 0.27948,0.74056 0.44129,1.10168 0,0 0,2e-5 0,2e-5 0.53823,1.20119 1.22069,2.33822 2.03235,3.37446 0,0 0,0 0,0 2.46576,3.14802 6.3163,5.12038 10.30636,5.38367 2.23607,0.14758 4.52056,-0.27277 6.50567,-1.31255 1.64504,-0.86166 3.07075,-2.11146 4.23918,-3.55486 0,0 0,0 10e-6,0 1.001,-1.8009 2.00201,-3.60179 3.00302,-5.40269 0.26828,-51.57408 0.53655,-103.14809 0.80481,-154.7221 -0.8917,-1.70896 -1.78339,-3.41785 -2.67507,-5.12674 -1e-5,0 -1e-5,0 -1e-5,0 -2.57581,-3.20433 -6.79336,-4.86536 -10.89786,-4.62941 -4.14028,0.238 -8.25533,1.9074 -11.06859,4.95438 0,0 0,0 0,10e-6 -0.94985,1.50171 -1.89969,3.00342 -2.84953,4.50513 -3e-5,9e-5 -2e-5,9e-5 -2e-5,9e-5 z"
       style="fill:#ffffff;fill-opacity:1;fill-rule:evenodd;stroke:none;stroke-width:1px;stroke-linecap:butt;stroke-linejoin:miter;stroke-opacity:1" />
    <path
       sodipodi:nodetypes="ccsccsc"
       inkscape:connector-curvature="0"
       inkscape:original-d="m 141.00827,810.88799 0.0221,89.98159 c 0,0 2.62829,5.57536 12.91628,5.96941 10.34744,0.39648 13.74793,-5.96185 13.74793,-5.96185 l 0.80479,-89.81699 c 0,0 -2.584,-6.03021 -13.57293,-5.66349 -10.98899,0.3667 -13.91816,5.49133 -13.91816,5.49133 z"
       inkscape:path-effect="#path-effect4221-2"
       id="path4219-5"
       d="m 141.00827,810.88799 c 0.007,29.99386 0.0147,59.98773 0.0221,89.98159 0.0108,0.0228 0.0229,0.0457 0.0347,0.0678 0.0328,0.0614 0.0676,0.12171 0.10357,0.18133 l 0,0 1e-5,10e-6 c 0.13421,0.22258 0.2841,0.43547 0.44307,0.64109 l 0,10e-6 0,0 c 0.57754,0.74705 1.27559,1.39666 2.03457,1.95843 0,0 0,0 0,0 l 0,0 c 2.92657,2.16615 6.66197,2.98139 10.30031,3.12075 1e-5,0 1e-5,0 1e-5,0 3.76714,0.14434 7.67462,-0.62619 10.73935,-2.82155 1.00284,-1.04673 2.00568,-2.09347 3.00853,-3.1402 0.26831,-29.9391 0.53658,-59.87809 0.80484,-89.81709 -0.003,-0.007 -0.006,-0.0135 -0.009,-0.0201 -0.008,-0.0177 -0.0166,-0.0352 -0.0252,-0.0527 -0.0324,-0.0658 -0.0672,-0.13052 -0.10323,-0.19446 l -1e-5,0 0,0 c -0.13364,-0.23703 -0.28523,-0.46368 -0.4475,-0.6821 l 0,0 -1e-5,-10e-6 c -0.58245,-0.78399 -1.3039,-1.45981 -2.09608,-2.03108 0,0 0,0 0,0 -3.08745,-2.22649 -7.08747,-2.81003 -10.89187,-2.68307 0,0 -1e-5,0 -1e-5,0 -3.85063,0.1285 -7.79919,0.82309 -11.06204,2.87192 0,0 0,0 0,0 -0.95202,0.8731 -1.90403,1.74619 -2.85604,2.61929 -7e-5,1.2e-4 -8e-5,1.2e-4 -8e-5,1.2e-4 z"
       style="fill:#ffffff;fill-opacity:1;fill-rule:evenodd;stroke:none;stroke-width:1px;stroke-linecap:butt;stroke-linejoin:miter;stroke-opacity:1" />
    <path
       sodipodi:nodetypes="ccsccsc"
       inkscape:connector-curvature="0"
       inkscape:original-d="m 242.02133,783.16765 0.0221,120.3261 c 0,0 2.62831,7.45556 12.9163,7.98253 10.34742,0.5301 13.74793,-7.97243 13.74793,-7.97243 l 0.80479,-120.10602 c 0,0 -2.584,-8.06378 -13.57294,-7.57339 -10.98898,0.49036 -13.91814,7.34321 -13.91814,7.34321 z"
       inkscape:path-effect="#path-effect4221-6"
       id="path4219-6"
       d="m 242.02133,783.16765 c 0.007,40.1087 0.0147,80.2174 0.0221,120.3261 0.87085,1.26869 1.74167,2.53728 2.61248,3.80588 0,0 1e-5,0 1e-5,0 2.69382,2.66827 6.51716,3.98269 10.3038,4.17665 1e-5,0 1e-5,0 1e-5,0 3.9028,0.19994 7.92128,-1.07201 10.74251,-3.77617 1.0018,-1.39872 2.00359,-2.79745 3.00539,-4.19618 0.26829,-40.03542 0.53656,-80.07076 0.80482,-120.1061 -0.89255,-1.32745 -1.78506,-2.6548 -2.67758,-3.98215 -2.83122,-2.73246 -6.96453,-3.76666 -10.89536,-3.59124 0,0 -1e-5,0 -1e-5,0 -3.9717,0.17723 -8.02204,1.28592 -11.06576,3.84357 -0.95077,1.16651 -1.90155,2.33302 -2.85233,3.49954 -5e-5,10e-5 -7e-5,10e-5 -8e-5,10e-5 z"
       style="fill:#ffffff;fill-opacity:1;fill-rule:evenodd;stroke:none;stroke-width:1px;stroke-linecap:butt;stroke-linejoin:miter;stroke-opacity:1" />
    <path
       style="fill:#e10808;fill-opacity:1;fill-rule:evenodd;stroke:none;stroke-width:1px;stroke-linecap:butt;stroke-linejoin:miter;stroke-opacity:1"
       d="m 230.1216,1280.6218 c 66.60044,0 133.20087,0 199.80131,0 0.0128,-0 0.0258,-0.01 0.0384,-0.01 0.0355,-0.01 0.0709,-0.02 0.1062,-0.03 0.13354,-0.039 0.26625,-0.08 0.39839,-0.1233 l 1e-5,0 0,0 c 0,0 2e-5,0 2e-5,0 0.4802,-0.1569 0.95293,-0.3363 1.41886,-0.5315 l 10e-6,0 0,0 c 1.53855,-0.6448 3.00467,-1.4649 4.35031,-2.4508 0,0 0,0 1e-5,0 1.77614,-1.3014 3.33785,-2.9089 4.5084,-4.7739 l 0,0 10e-6,0 c 1.4397,-2.2938 2.24537,-4.9626 2.43611,-7.6641 0.19134,-2.7099 -0.36552,-5.4817 -1.69218,-7.8524 -1.12616,-2.0124 -2.74567,-3.7236 -4.58376,-5.1163 -2.32012,-1.2074 -4.64024,-2.4147 -6.96036,-3.6221 -66.47864,-0.3326 -132.95723,-0.6651 -199.43582,-0.9977 -0.0137,0 -0.0277,0.01 -0.0413,0.01 -0.0382,0.01 -0.0763,0.019 -0.11427,0.03 -0.14328,0.038 -0.2857,0.08 -0.42752,0.1229 l -1e-5,0 0,0 c -0.51105,0.1562 -1.01431,0.3374 -1.51,0.537 -1e-5,0 -1e-5,0 -1e-5,0 -1.60332,0.6456 -3.13079,1.4862 -4.51223,2.5249 -1e-5,0 -1e-5,0 -2e-5,0 -1.78219,1.3401 -3.31247,3.0351 -4.35392,5.0068 -1.30947,2.479 -1.78973,5.3465 -1.6182,8.1449 0,0 1e-5,0 1e-5,0 0.3105,5.0658 2.54796,10.0415 6.38815,13.3599 1e-5,0 1e-5,0 1e-5,0 1.93443,1.1454 3.86886,2.2908 5.80328,3.4362 5e-5,0 7e-5,0 7e-5,0 z"
       id="path4203-9"
       inkscape:path-effect="#path-effect4205-9"
       inkscape:original-d="m 230.1216,1280.6218 199.80131,0 c 0,0 12.38026,-3.1698 13.25677,-15.5838 0.88158,-12.4856 -13.23635,-16.5908 -13.23635,-16.5908 l -199.43577,-0.9977 c 0,0 -13.39024,3.1163 -12.57748,16.3762 0.81277,13.2601 12.19152,16.7961 12.19152,16.7961 z"
       inkscape:connector-curvature="0"
       sodipodi:nodetypes="ccsccsc" />
    <path
       sodipodi:nodetypes="ccsccsc"
       inkscape:connector-curvature="0"
       inkscape:original-d="m 315.29459,1109.9496 0.0245,158.5575 c 0,0 2.91591,9.8244 14.32963,10.5189 11.47963,0.6985 15.25223,-10.5056 15.25223,-10.5056 l 0.89285,-158.2674 c 0,0 -2.86675,-10.6259 -15.05812,-9.9797 -12.19143,0.6461 -15.44111,9.6763 -15.44111,9.6763 z"
       inkscape:path-effect="#path-effect4221-8"
       id="path4219-9"
       d="m 315.29459,1109.9496 c 0.008,52.8525 0.0163,105.705 0.0245,158.5575 0.003,0.01 0.006,0.021 0.01,0.031 0.009,0.028 0.0183,0.057 0.0277,0.085 0.0357,0.1065 0.074,0.212 0.11376,0.317 l 10e-6,0 0,0 c 0.14515,0.383 0.31044,0.7583 0.48949,1.1268 l 0,0 c 0.60223,1.2393 1.36255,2.4017 2.25462,3.4518 0,0 0,0 0,0 2.81795,3.3174 7.0898,5.2431 11.43441,5.5075 0,0 1e-5,0 1e-5,0 2.47,0.1503 4.98951,-0.2666 7.21779,-1.3428 1.79652,-0.8677 3.38687,-2.1373 4.7031,-3.6366 0,0 0,0 10e-6,0 1.00471,-1.1444 1.85972,-2.4187 2.5557,-3.7733 0.21237,-0.4133 0.41014,-0.8342 0.58736,-1.2638 0,0 1e-5,0 1e-5,0 0.0489,-0.1186 0.0963,-0.2379 0.14114,-0.3582 0.0119,-0.032 0.0236,-0.064 0.0349,-0.096 0.004,-0.012 0.008,-0.023 0.0122,-0.035 l 0.89287,-158.2675 c -0.98918,-1.748 -1.97834,-3.4959 -2.96749,-5.2439 -10e-6,0 -10e-6,0 -10e-6,0 -2.95044,-3.3844 -7.60703,-4.9735 -12.09062,-4.7358 -4.52511,0.2398 -9.07381,1.8661 -12.28014,5.0682 l -10e-6,10e-5 c -0.94897,0.9477 -1.78249,2.0131 -2.45493,3.1735 -0.19523,0.3369 -0.3771,0.6817 -0.53844,1.0361 0,0 -10e-6,0 -10e-6,0 -0.0439,0.096 -0.0862,0.1934 -0.12598,0.2916 l 0,0 c -0.0105,0.026 -0.0208,0.052 -0.0308,0.078 -0.004,0.01 -0.007,0.019 -0.0107,0.029 z"
       style="fill:#e10808;fill-opacity:1;fill-rule:evenodd;stroke:none;stroke-width:1px;stroke-linecap:butt;stroke-linejoin:miter;stroke-opacity:1" />
    <path
       sodipodi:nodetypes="ccsccsc"
       inkscape:connector-curvature="0"
       inkscape:original-d="m 260.35317,1169.0122 0.0245,92.0435 c 0,0 2.91589,5.7031 14.32962,6.1062 11.47968,0.4056 15.25227,-6.0984 15.25227,-6.0984 l 0.89285,-91.8752 c 0,0 -2.86675,-6.1684 -15.05812,-5.7932 -12.19143,0.3751 -15.44112,5.6171 -15.44112,5.6171 z"
       inkscape:path-effect="#path-effect4221-2-5"
       id="path4219-5-8"
       d="m 260.35317,1169.0122 c 0.008,30.6812 0.0163,61.3623 0.0245,92.0435 0.96722,0.9712 1.93438,1.9424 2.90154,2.9135 3.30944,2.2588 7.42374,3.0513 11.42807,3.1927 l 0,0 10e-6,0 0,0 c 4.14997,0.1466 8.45026,-0.5979 11.91516,-2.8866 0,0 0,0 10e-6,0 0.9391,-0.6203 1.81115,-1.3475 2.55757,-2.1898 0.20834,-0.2351 0.40697,-0.4791 0.5891,-0.735 0,0 0,0 0,0 0,0 10e-6,0 10e-6,0 0.0489,-0.069 0.0966,-0.1383 0.14216,-0.2092 0.012,-0.019 0.0239,-0.038 0.0355,-0.056 0.004,-0.01 0.009,-0.014 0.0127,-0.021 l 0.89291,-91.8753 c -0.99131,-1.0162 -1.98256,-2.0322 -2.97382,-3.0483 -3.49347,-2.3231 -7.8909,-2.874 -12.08429,-2.7449 -1e-5,0 -1e-5,0 -1e-5,0 -4.24618,0.1306 -8.59701,0.8094 -12.27335,2.9382 -1.0559,0.8929 -2.1118,1.7859 -3.1677,2.6788 -5e-5,10e-5 -7e-5,10e-5 -7e-5,10e-5 z"
       style="fill:#e10808;fill-opacity:1;fill-rule:evenodd;stroke:none;stroke-width:1px;stroke-linecap:butt;stroke-linejoin:miter;stroke-opacity:1" />
    <path
       sodipodi:nodetypes="ccsccsc"
       inkscape:connector-curvature="0"
       inkscape:original-d="m 372.41935,1140.6567 0.0245,123.0833 c 0,0 2.9159,7.6264 14.32963,8.1655 11.47967,0.5422 15.25227,-8.1551 15.25227,-8.1551 l 0.89285,-122.8583 c 0,0 -2.86675,-8.2485 -15.05813,-7.7469 -12.19142,0.5016 -15.4411,7.5115 -15.4411,7.5115 z"
       inkscape:path-effect="#path-effect4221-6-4"
       id="path4219-6-7"
       d="m 372.41935,1140.6567 c 0.008,41.0278 0.0163,82.0555 0.0245,123.0833 0.96599,1.2976 1.93195,2.5952 2.8979,3.8927 1e-5,0 1e-5,0 2e-5,0 3.06553,2.7999 7.28456,4.0769 11.43169,4.2728 l 2e-5,0 0,0 c 4.28061,0.2022 8.70745,-1.0251 11.91844,-3.8631 l 0,0 1e-5,0 3.33378,-4.2919 4e-5,-1e-4 c 0.29762,-40.9528 0.59523,-81.9055 0.89285,-122.8583 -0.99007,-1.3577 -1.98011,-2.7154 -2.97015,-4.073 -10e-6,0 -10e-6,0 -10e-6,0 -3.2262,-2.8711 -7.77288,-3.8514 -12.08797,-3.6739 l 0,0 c -4.36229,0.1795 -8.82599,1.2579 -12.27717,3.9321 l 0,0 -1e-5,0 c -0.91929,0.7123 -1.76003,1.5316 -2.456,2.4633 -0.19341,0.2589 -0.37574,0.5264 -0.53932,0.8051 0,0 -10e-6,0 -10e-6,0 -0.0439,0.075 -0.0864,0.1503 -0.12647,0.2271 l 0,0 c -0.0106,0.02 -0.021,0.041 -0.0311,0.061 -0.004,0.01 -0.007,0.015 -0.011,0.023 z"
       style="fill:#e10808;fill-opacity:1;fill-rule:evenodd;stroke:none;stroke-width:1px;stroke-linecap:butt;stroke-linejoin:miter;stroke-opacity:1" />
    <path
       style="opacity:1;fill:none;fill-opacity:1;fill-rule:evenodd;stroke:#000000;stroke-width:1.02280593;stroke-miterlimit:4;stroke-dasharray:none;stroke-opacity:1"
       id="path4285"
       sodipodi:type="arc"
       sodipodi:cx="207.17258"
       sodipodi:cy="840.29108"
       sodipodi:rx="151.76112"
       sodipodi:ry="145.75093"
       sodipodi:start="3.5702979"
       sodipodi:end="3.5672261"
       sodipodi:open="true"
       d="M 69.145117,779.70335 A 151.76112,145.75093 0 0 1 270.15268,707.68343 151.76112,145.75093 0 0 1 345.29677,900.67513 151.76112,145.75093 0 0 1 144.40462,972.99147 151.76112,145.75093 0 0 1 68.95198,780.11084" />
  </g>
</svg>
