<?xml version="1.0" encoding="UTF-8" standalone="no"?>
<!-- Created with Inkscape (http://www.inkscape.org/) -->

<svg
   xmlns:dc="http://purl.org/dc/elements/1.1/"
   xmlns:cc="http://creativecommons.org/ns#"
   xmlns:rdf="http://www.w3.org/1999/02/22-rdf-syntax-ns#"
   xmlns:svg="http://www.w3.org/2000/svg"
   xmlns="http://www.w3.org/2000/svg"
   xmlns:xlink="http://www.w3.org/1999/xlink"
   xmlns:sodipodi="http://sodipodi.sourceforge.net/DTD/sodipodi-0.dtd"
   xmlns:inkscape="http://www.inkscape.org/namespaces/inkscape"
   width="1200.3622"
   height="400.09448"
   viewBox="0 0 1200.3622 400.09448"
   id="svg2"
   version="1.1"
   inkscape:version="0.91 r13725"
   sodipodi:docname="logo.svg">
  <defs
     id="defs4">
    <inkscape:path-effect
       effect="skeletal"
       id="path-effect4177"
       is_visible="true"
       pattern="m -169.58158,616.31881 1,0"
       copytype="single_stretched"
       prop_scale="1"
       scale_y_rel="false"
       spacing="0"
       normal_offset="0"
       tang_offset="0"
       prop_units="false"
       vertical_pattern="false"
       fuse_tolerance="0" />
    <inkscape:path-effect
       effect="skeletal"
       id="path-effect4173"
       is_visible="true"
       pattern="m 0,652.26769 1,0"
       copytype="single_stretched"
       prop_scale="1"
       scale_y_rel="false"
       spacing="0"
       normal_offset="0"
       tang_offset="0"
       prop_units="false"
       vertical_pattern="false"
       fuse_tolerance="0" />
    <inkscape:path-effect
       effect="skeletal"
       id="path-effect4321"
       is_visible="true"
       pattern="m 12.224981,180.3717 c 66.600436,0 133.200869,0 199.801309,0 0.0128,-0.003 0.0258,-0.007 0.0384,-0.0103 0.0355,-0.01 0.0709,-0.0197 0.1062,-0.0299 0.13353,-0.0387 0.26624,-0.0801 0.39838,-0.12331 l 2e-5,-1e-5 0,0 c 0,0 2e-5,0 2e-5,0 0.4802,-0.1569 0.95293,-0.33627 1.41886,-0.53152 0,0 0,0 1e-5,0 1.53854,-0.64475 3.00467,-1.46485 4.3503,-2.4508 l 1e-5,0 1e-5,-10e-6 0,0 c 1.77614,-1.30139 3.33785,-2.90886 4.5084,-4.77384 l 0,0 1e-5,-2e-5 c 1.4397,-2.29381 2.24537,-4.96264 2.43611,-7.6641 0.19134,-2.70994 -0.36552,-5.48165 -1.69218,-7.85239 -1.12616,-2.01244 -2.74567,-3.7236 -4.58375,-5.11629 -1e-5,0 -1e-5,0 -1e-5,-1e-5 -2.32012,-1.20736 -4.64024,-2.41473 -6.96036,-3.62209 -66.47864,-0.33259 -132.957229,-0.66515 -199.435819,-0.99772 -2.20182,1.07485 -4.4035815,2.14968 -6.6053427,3.22452 -1.7821909,1.3401 -3.312487,3.03507 -4.3539413,5.00673 -1.3094695,2.47907 -1.78972247,5.34655 -1.61819562,8.14495 3.42e-6,1e-5 6.83e-6,1e-5 1.025e-5,2e-5 0.31050186,5.06579 2.54795537,10.04151 6.38815137,13.35987 5.8e-6,0 7.5e-6,1e-5 9.2e-6,1e-5 1.9344273,1.14539 3.8688548,2.29079 5.8032818,3.43618 4.5e-5,1e-5 6.7e-5,2e-5 6.7e-5,2e-5 z"
       copytype="single_stretched"
       prop_scale="1"
       scale_y_rel="false"
       spacing="0"
       normal_offset="0"
       tang_offset="0"
       prop_units="false"
       vertical_pattern="false"
       fuse_tolerance="0" />
    <inkscape:path-effect
       fuse_tolerance="0"
       vertical_pattern="false"
       prop_units="false"
       tang_offset="0"
       normal_offset="0"
       spacing="0"
       scale_y_rel="false"
       prop_scale="1"
       copytype="single_stretched"
       pattern="m -410.54756,530.38586 1,0"
       is_visible="true"
       id="path-effect4221"
       effect="skeletal" />
    <inkscape:path-effect
       effect="skeletal"
       id="path-effect4205"
       is_visible="true"
       pattern="m -410.54756,530.38586 1,0"
       copytype="single_stretched"
       prop_scale="1"
       scale_y_rel="false"
       spacing="0"
       normal_offset="0"
       tang_offset="0"
       prop_units="false"
       vertical_pattern="false"
       fuse_tolerance="0" />
    <linearGradient
       inkscape:collect="always"
       id="linearGradient4189">
      <stop
         style="stop-color:#22b1ee;stop-opacity:1;"
         offset="0"
         id="stop4191" />
      <stop
         style="stop-color:#22b1ee;stop-opacity:0;"
         offset="1"
         id="stop4193" />
    </linearGradient>
    <linearGradient
       inkscape:collect="always"
       id="linearGradient4169">
      <stop
         style="stop-color:#2d388a;stop-opacity:1;"
         offset="0"
         id="stop4171" />
      <stop
         style="stop-color:#2d388a;stop-opacity:0;"
         offset="1"
         id="stop4173" />
    </linearGradient>
    <linearGradient
       inkscape:collect="always"
       xlink:href="#linearGradient4169"
       id="linearGradient4175"
       x1="170"
       y1="840.93365"
       x2="285.71426"
       y2="840.93359"
       gradientUnits="userSpaceOnUse"
       gradientTransform="matrix(0.81098067,0,0,0.87985084,-17.350826,114.8573)" />
    <linearGradient
       inkscape:collect="always"
       xlink:href="#linearGradient4189"
       id="linearGradient4195"
       x1="-424.57739"
       y1="-846.61908"
       x2="-290.34064"
       y2="-842.33246"
       gradientUnits="userSpaceOnUse"
       gradientTransform="matrix(0.81098755,0,0,0.8798445,124.94634,-111.02007)" />
    <linearGradient
       inkscape:collect="always"
       xlink:href="#linearGradient4169"
       id="linearGradient4201"
       gradientUnits="userSpaceOnUse"
       x1="160"
       y1="839.50507"
       x2="359.99997"
       y2="846.64789"
       gradientTransform="matrix(0.81098067,0,0,0.87985084,-6.9239332,116.11424)" />
    <inkscape:path-effect
       fuse_tolerance="0"
       vertical_pattern="false"
       prop_units="false"
       tang_offset="0"
       normal_offset="0"
       spacing="0"
       scale_y_rel="false"
       prop_scale="1"
       copytype="single_stretched"
       pattern="m -507.11611,511.19296 1,0"
       is_visible="true"
       id="path-effect4221-2"
       effect="skeletal" />
    <inkscape:path-effect
       fuse_tolerance="0"
       vertical_pattern="false"
       prop_units="false"
       tang_offset="0"
       normal_offset="0"
       spacing="0"
       scale_y_rel="false"
       prop_scale="1"
       copytype="single_stretched"
       pattern="m -310.14147,583.51784 1,0"
       is_visible="true"
       id="path-effect4221-6"
       effect="skeletal" />
    <inkscape:path-effect
       fuse_tolerance="0"
       vertical_pattern="false"
       prop_units="false"
       tang_offset="0"
       normal_offset="0"
       spacing="0"
       scale_y_rel="false"
       prop_scale="1"
       copytype="single_stretched"
       pattern="m 10.502521,927.63323 1,0"
       is_visible="true"
       id="path-effect4221-6-4"
       effect="skeletal" />
    <inkscape:path-effect
       fuse_tolerance="0"
       vertical_pattern="false"
       prop_units="false"
       tang_offset="0"
       normal_offset="0"
       spacing="0"
       scale_y_rel="false"
       prop_scale="1"
       copytype="single_stretched"
       pattern="m -186.47212,855.30835 1,0"
       is_visible="true"
       id="path-effect4221-2-5"
       effect="skeletal" />
    <inkscape:path-effect
       fuse_tolerance="0"
       vertical_pattern="false"
       prop_units="false"
       tang_offset="0"
       normal_offset="0"
       spacing="0"
       scale_y_rel="false"
       prop_scale="1"
       copytype="single_stretched"
       pattern="m -89.903569,874.50125 1,0"
       is_visible="true"
       id="path-effect4221-8"
       effect="skeletal" />
    <inkscape:path-effect
       effect="skeletal"
       id="path-effect4205-9"
       is_visible="true"
       pattern="m -89.903569,874.50125 1,0"
       copytype="single_stretched"
       prop_scale="1"
       scale_y_rel="false"
       spacing="0"
       normal_offset="0"
       tang_offset="0"
       prop_units="false"
       vertical_pattern="false"
       fuse_tolerance="0" />
  </defs>
  <sodipodi:namedview
     id="base"
     pagecolor="#ffffff"
     bordercolor="#666666"
     borderopacity="1.0"
     inkscape:pageopacity="0.0"
     inkscape:pageshadow="2"
     inkscape:zoom="0.35"
     inkscape:cx="781.05928"
     inkscape:cy="40.306442"
     inkscape:document-units="px"
     inkscape:current-layer="layer1"
     showgrid="false"
     units="px"
     inkscape:window-width="1366"
     inkscape:window-height="705"
     inkscape:window-x="-8"
     inkscape:window-y="-8"
     inkscape:window-maximized="1">
    <inkscape:grid
       type="xygrid"
       id="grid4207" />
  </sodipodi:namedview>
  <metadata
     id="metadata7">
    <rdf:RDF>
      <cc:Work
         rdf:about="">
        <dc:format>image/svg+xml</dc:format>
        <dc:type
           rdf:resource="http://purl.org/dc/dcmitype/StillImage" />
        <dc:title></dc:title>
      </cc:Work>
    </rdf:RDF>
  </metadata>
  <g
     inkscape:label="Layer 1"
     inkscape:groupmode="layer"
     id="layer1"
     transform="translate(0,-652.26769)">
    <text
       xml:space="preserve"
       style="font-style:normal;font-weight:normal;font-size:148.00473022px;line-height:125%;font-family:sans-serif;letter-spacing:0px;word-spacing:0px;fill:#000000;fill-opacity:1;stroke:none;stroke-width:1px;stroke-linecap:butt;stroke-linejoin:miter;stroke-opacity:1"
       x="312.09268"
       y="863.90881"
       id="text4136"
       sodipodi:linespacing="125%"
       transform="scale(0.95383741,1.0483967)"><tspan
         sodipodi:role="line"
         id="tspan4138"
         x="312.09268"
         y="863.90881"
         style="font-style:normal;font-variant:normal;font-weight:bold;font-stretch:normal;font-family:sans-serif;-inkscape-font-specification:'sans-serif Bold';letter-spacing:10.97380257px;word-spacing:0px"
         dy="0"
         dx="0">RyderHub</tspan></text>
    <path
       style="opacity:1;fill:url(#linearGradient4175);fill-opacity:1;fill-rule:evenodd;stroke:none;stroke-width:1.546;stroke-miterlimit:4;stroke-dasharray:none;stroke-opacity:1"
       id="path4150"
       sodipodi:type="arc"
       sodipodi:cx="146.00386"
       sodipodi:cy="853.49652"
       sodipodi:rx="113.53728"
       sodipodi:ry="121.92218"
       sodipodi:start="3.5702979"
       sodipodi:end="3.5672261"
       sodipodi:open="true"
       d="M 42.74117,802.81426 A 113.53728,121.92218 0 0 1 193.12126,742.56883 113.53728,121.92218 0 0 1 249.33892,904.00841 113.53728,121.92218 0 0 1 99.045172,964.50179 113.53728,121.92218 0 0 1 42.596678,803.15512" />
    <path
       d="m -249.65338,-907.02602 a 113.53825,121.9213 0 0 1 150.381385,-60.24499 113.53825,121.9213 0 0 1 56.218141,161.43842 113.53825,121.9213 0 0 1 -150.295036,60.49294 113.53825,121.9213 0 0 1 -56.44898,-161.3455"
       sodipodi:open="true"
       sodipodi:end="3.5672261"
       sodipodi:start="3.5702979"
       sodipodi:ry="121.9213"
       sodipodi:rx="113.53825"
       sodipodi:cy="-856.34412"
       sodipodi:cx="-146.3898"
       sodipodi:type="arc"
       id="path4177"
       style="opacity:1;fill:url(#linearGradient4195);fill-opacity:1;fill-rule:evenodd;stroke:none;stroke-width:1.546;stroke-miterlimit:4;stroke-dasharray:none;stroke-opacity:1"
       transform="matrix(-0.99994352,0.01062773,-0.00902923,-0.99995924,0,0)" />
    <path
       d="M 53.168065,804.07121 A 113.53728,121.92218 0 0 1 203.54816,743.82579 113.53728,121.92218 0 0 1 259.76581,905.26537 113.53728,121.92218 0 0 1 109.47207,965.75875 113.53728,121.92218 0 0 1 53.023573,804.41208"
       sodipodi:open="true"
       sodipodi:end="3.5672261"
       sodipodi:start="3.5702979"
       sodipodi:ry="121.92218"
       sodipodi:rx="113.53728"
       sodipodi:cy="854.75348"
       sodipodi:cx="156.43076"
       sodipodi:type="arc"
       id="path4197"
       style="opacity:1;fill:url(#linearGradient4201);fill-opacity:1;fill-rule:evenodd;stroke:none;stroke-width:1.546;stroke-miterlimit:4;stroke-dasharray:none;stroke-opacity:1" />
    <path
       style="fill:#ffffff;fill-opacity:1;fill-rule:evenodd;stroke:none;stroke-width:1px;stroke-linecap:butt;stroke-linejoin:miter;stroke-opacity:1"
       d="m 91.048356,902.81779 c 42.016784,0 84.033574,0 126.050364,0 1.32903,-0.67237 2.65797,-1.34471 3.9869,-2.01704 2.50999,-1.86771 4.15933,-4.83681 4.37654,-7.9579 0,-10e-6 0,-2e-5 0,-2e-5 0.12052,-1.73195 -0.22811,-3.50297 -1.06607,-5.0235 -0.70752,-1.28384 -1.7272,-2.38041 -2.88901,-3.27429 0,0 0,0 -1e-5,-10e-6 -1.46512,-0.7739 -2.93025,-1.54781 -4.39537,-2.32171 l -125.819854,-0.63864 -9.4e-5,2e-5 c -0.009,0.002 -0.01813,0.004 -0.02706,0.007 -0.02439,0.006 -0.04872,0.0126 -0.07301,0.0192 -0.09089,0.0246 -0.181217,0.0513 -0.271156,0.0792 0,0 -7e-6,0 -7e-6,0 l 0,0 c -0.323082,0.10027 -0.641096,0.21658 -0.9542,0.34465 -1.012841,0.41429 -1.976301,0.95327 -2.845992,1.61744 -3e-6,0 -7e-6,10e-6 -1.2e-5,10e-6 -2.550757,1.94798 -3.956873,5.21124 -3.763332,8.41491 l 0,0 c 0.195162,3.23051 1.593101,6.41268 4.025597,8.54746 l 0,0 1.3e-5,10e-6 c 0.7655,0.6718 1.614425,1.24899 2.522464,1.71027 l 0,0 1.4e-5,10e-6 c 0.269372,0.13684 0.543966,0.26364 0.824574,0.37565 l 0,0 c 0.07702,0.0307 0.154482,0.0604 0.232622,0.0881 0.0208,0.007 0.04165,0.0146 0.06258,0.0217 0.0077,0.003 0.01563,0.005 0.0234,0.008 7.1e-5,2e-5 1.06e-4,3e-5 1.06e-4,3e-5 z"
       id="path4203"
       inkscape:path-effect="#path-effect4205"
       inkscape:original-d="m 91.048356,902.81779 126.050364,0 c 0,0 7.81046,-2.02893 8.36344,-9.97496 0.55615,-7.99191 -8.35055,-10.61954 -8.35055,-10.61954 L 91.291846,881.58468 c 0,0 -8.447613,1.99465 -7.934861,10.48219 0.512752,8.48757 7.691371,10.75092 7.691371,10.75092 z"
       inkscape:connector-curvature="0"
       sodipodi:nodetypes="ccsccsc" />
    <path
       sodipodi:nodetypes="ccsccsc"
       inkscape:connector-curvature="0"
       inkscape:original-d="m 144.78217,793.57277 0.0155,101.49061 c 0,0 1.83958,6.28847 9.04026,6.73296 7.24225,0.44712 9.62231,-6.72444 9.62231,-6.72444 l 0.56326,-101.30497 c 0,0 -1.80855,-6.80151 -9.49982,-6.38789 -7.69132,0.41361 -9.74149,6.19373 -9.74149,6.19373 z"
       inkscape:path-effect="#path-effect4221"
       id="path4219"
       d="m 144.78217,793.57277 c 0.005,33.8302 0.0103,67.66041 0.0155,101.49061 6.3e-4,0.002 0.006,0.019 0.006,0.021 0.006,0.0184 0.0117,0.0368 0.0178,0.0551 0.0227,0.0686 0.0471,0.13661 0.0724,0.20427 0,0 0,1e-5 0,1e-5 0.0919,0.24562 0.19651,0.48638 0.30992,0.72283 l 0,10e-6 c 0.37982,0.79191 0.85957,1.5359 1.42378,2.209 0,0 0,0 0,0 1.76848,2.10982 4.46223,3.3511 7.20996,3.52072 1e-5,0 1e-5,0 1e-5,0 2.82068,0.17414 5.66679,-1.04688 7.51704,-3.18303 0,-10e-6 0,-10e-6 1e-5,-2e-5 0.70174,-1.18043 1.40348,-2.36086 2.10523,-3.54129 0.18778,-33.76842 0.37554,-67.53675 0.56329,-101.30507 -6.1e-4,-0.002 -0.006,-0.0203 -0.006,-0.0224 -0.006,-0.0198 -0.0115,-0.0395 -0.0176,-0.0592 -0.0225,-0.0735 -0.0468,-0.14648 -0.0721,-0.21905 l -1e-5,-10e-6 0,0 c 0,0 0,-10e-6 0,-10e-6 -0.0914,-0.26134 -0.19711,-0.51759 -0.31299,-0.76903 -1e-5,0 -1e-5,0 -1e-5,-10e-6 -0.38076,-0.82615 -0.87352,-1.60139 -1.46678,-2.29099 0,-10e-6 0,-10e-6 0,-10e-6 -1.85105,-2.15167 -4.78984,-3.17952 -7.62406,-3.0271 0,0 -1e-5,0 -1e-5,0 -2.86001,0.1538 -5.72981,1.2024 -7.74291,3.23974 0,0 -10e-6,0 -10e-6,0 -0.66617,0.98462 -1.33234,1.96924 -1.99851,2.95386 -6e-5,1.3e-4 -6e-5,1.3e-4 -7e-5,1.3e-4 z"
       style="fill:#ffffff;fill-opacity:1;fill-rule:evenodd;stroke:none;stroke-width:1px;stroke-linecap:butt;stroke-linejoin:miter;stroke-opacity:1" />
    <path
       sodipodi:nodetypes="ccsccsc"
       inkscape:connector-curvature="0"
       inkscape:original-d="m 110.12081,831.37796 0.0156,58.91587 c 0,0 1.83957,3.65047 9.04025,3.9085 7.24229,0.25959 9.62233,-3.90356 9.62233,-3.90356 l 0.56327,-58.80809 c 0,0 -1.80856,-3.94831 -9.49984,-3.70819 -7.6913,0.2401 -9.74148,3.59547 -9.74148,3.59547 z"
       inkscape:path-effect="#path-effect4221-2"
       id="path4219-5"
       d="m 110.12081,831.37796 c 0.005,19.63862 0.0104,39.27725 0.0156,58.91587 0.008,0.0156 0.0167,0.0311 0.0253,0.0461 0.0233,0.0407 0.048,0.0806 0.0734,0.11995 0.0948,0.14678 0.20031,0.28653 0.31178,0.42112 l 0,10e-6 c 0.40894,0.49379 0.89867,0.91731 1.42609,1.28186 l 0,0 0,0 c 2.08026,1.4379 4.67643,1.94887 7.20365,2.03943 l 1e-5,0 0,0 0,0 c 2.61899,0.0939 5.33325,-0.38652 7.51131,-1.8439 l 0,0 c 0,0 10e-6,0 10e-6,0 0.70364,-0.68651 1.40728,-1.37301 2.11092,-2.05951 l 0,0 0.56336,-58.80824 0,0 c -0.008,-0.0167 -0.0164,-0.0334 -0.0249,-0.0494 -0.023,-0.0436 -0.0476,-0.0864 -0.0731,-0.12856 0,0 -1e-5,-1e-5 -1e-5,-1e-5 -0.0944,-0.1563 -0.2011,-0.30503 -0.31483,-0.44792 l 0,0 c -1e-5,0 -1e-5,-10e-6 -1e-5,-10e-6 -0.41286,-0.51871 -0.91926,-0.95898 -1.46918,-1.32927 l 0,-10e-6 0,0 c -2.19591,-1.47864 -4.97173,-1.83561 -7.61779,-1.753 l 0,0 c -2.67894,0.0836 -5.42408,0.52095 -7.73615,1.8767 0,0 0,0 0,1e-5 -0.56209,0.32959 -1.09492,0.7149 -1.55278,1.17851 0,0 -1e-5,10e-6 -1e-5,10e-6 -0.12124,0.12276 -0.23719,0.25097 -0.34298,0.38727 l 0,0 c -0.028,0.0361 -0.0553,0.0728 -0.0813,0.11038 l 0,0 c -0.01,0.0138 -0.0193,0.0281 -0.0281,0.0424 z"
       style="fill:#ffffff;fill-opacity:1;fill-rule:evenodd;stroke:none;stroke-width:1px;stroke-linecap:butt;stroke-linejoin:miter;stroke-opacity:1" />
    <path
       sodipodi:nodetypes="ccsccsc"
       inkscape:connector-curvature="0"
       inkscape:original-d="m 180.82098,813.22794 0.0155,78.78406 c 0,0 1.83958,4.88157 9.04027,5.2266 7.24228,0.34709 9.62233,-5.21998 9.62233,-5.21998 l 0.56328,-78.63997 c 0,0 -1.80856,-5.2798 -9.49984,-4.95871 -7.69131,0.32106 -9.74147,4.808 -9.74147,4.808 z"
       inkscape:path-effect="#path-effect4221-6"
       id="path4219-6"
       d="m 180.82098,813.22794 c 0.005,26.26135 0.0103,52.52271 0.0155,78.78406 0.008,0.0201 0.0163,0.0406 0.0247,0.0602 0.023,0.0537 0.0474,0.10674 0.0728,0.15935 l 0,0 0,10e-6 c 0.0931,0.19287 0.19807,0.37985 0.31072,0.56198 0.39203,0.63388 0.87771,1.20831 1.42475,1.71452 0,0 1e-5,0 1e-5,0 1.92518,1.78145 4.58736,2.60501 7.2073,2.73055 2.70379,0.12958 5.49815,-0.66277 7.51458,-2.46867 0,-1e-5 1e-5,-1e-5 1e-5,-1e-5 0.61591,-0.5516 1.16196,-1.18193 1.61431,-1.87401 0,0 0,-10e-6 0,-10e-6 0.1335,-0.20424 0.25898,-0.41384 0.37238,-0.62989 0,0 0,0 0,-1e-5 0,0 0,0 0,0 0.0312,-0.0594 0.0614,-0.11921 0.0901,-0.1798 l 0,0 c 0.008,-0.0162 0.0152,-0.0325 0.0226,-0.0488 -0.002,0.004 0.0102,-0.0228 0.008,-0.0186 l 0.56333,-78.6401 c -0.62617,-0.87051 -1.25229,-1.74088 -1.87841,-2.61126 -2.02579,-1.82632 -4.8963,-2.46122 -7.62143,-2.34745 0,0 -1e-5,0 -1e-5,0 -2.75446,0.11498 -5.5714,0.81034 -7.73996,2.51259 0,0 0,0 0,0 -0.66714,0.76509 -1.33429,1.53017 -2.00143,2.29526 -9e-5,1.5e-4 -1.2e-4,1.5e-4 -1.4e-4,1.5e-4 z"
       style="fill:#ffffff;fill-opacity:1;fill-rule:evenodd;stroke:none;stroke-width:1px;stroke-linecap:butt;stroke-linejoin:miter;stroke-opacity:1" />
    <path
       style="opacity:1;fill:none;fill-opacity:1;fill-rule:evenodd;stroke:#000000;stroke-width:0.86397862;stroke-miterlimit:4;stroke-dasharray:none;stroke-opacity:1"
       id="path4285"
       sodipodi:type="arc"
       sodipodi:cx="150.66212"
       sodipodi:cy="854.18817"
       sodipodi:rx="123.07534"
       sodipodi:ry="128.23907"
       sodipodi:start="3.5702979"
       sodipodi:end="3.5672261"
       sodipodi:open="true"
       d="M 38.72452,800.88001 A 123.07534,128.23907 0 0 1 201.73777,737.51322 123.07534,128.23907 0 0 1 262.67818,907.31713 123.07534,128.23907 0 0 1 99.75852,970.94472 123.07534,128.23907 0 0 1 38.56789,801.23854" />
    <path
       style="fill:none;stroke:black;stroke-opacity:1;stroke-width:1px;stroke-linejoin:miter;stroke-linecap:butt;fill-rule:evenodd"
       d="m 458.77542,345.47167 4.98988,10.94518 -25.53684,0.76211 4.35381,-4.63315 1e-5,0 24.99415,4.89505 c 0.005,-0.002 0.0107,-0.004 0.0159,-0.006 0.0147,-0.006 0.0294,-0.0121 0.044,-0.0184 0.0552,-0.0242 0.10992,-0.0511 0.1643,-0.0799 0,0 10e-6,0 10e-6,0 0,0 10e-6,0 10e-6,0 0.19761,-0.10428 0.3912,-0.23132 0.58223,-0.37539 0,0 0,0 10e-6,10e-6 0.63042,-0.47544 1.23427,-1.13883 1.79991,-1.99283 l 0,0 c 0,0 10e-6,-1e-5 10e-6,-1e-5 0.74368,-1.1228 1.42749,-2.60839 1.95389,-4.39535 0,0 0,-2e-5 0,-2e-5 0.64612,-2.19337 1.04328,-4.86473 1.11253,-7.55973 0.0698,-2.71609 -0.26435,-5.48099 -1.12909,-7.77206 -0.73547,-1.94855 -1.8035,-3.51103 -3.06699,-4.72122 0,0 -10e-6,0 -10e-6,-10e-6 -1.55622,-0.98966 -3.17064,-1.93165 -4.84327,-2.82596 -12.5321,1.71151 -25.10095,3.45311 -37.70647,5.22477 -1.60851,12.3201 -3.21778,24.70498 -4.82779,37.1546 19.20008,1.2898 38.52399,2.59681 57.97156,3.92101 2.35197,-7.16202 4.72143,-14.33985 7.10838,-21.53348 -0.37165,-1.85787 -0.83134,-3.63617 -1.37906,-5.33491 -0.88372,-1.44757 -2.22101,-2.64827 -4.014,-3.49638 -2.24137,-1.0602 -5.09755,-1.49904 -7.89785,-1.58629 -10e-6,0 -10e-6,0 -2e-5,0 -5.00697,-0.15602 -10.07245,0.67553 -12.51655,1.74404 0,0 -10e-6,0 0,0 -0.80665,0.63597 -1.53088,1.19747 -2.17268,1.6845 0,2e-5 -10e-6,2e-5 -10e-6,2e-5 0,0 0,1e-5 0,1e-5 z"
       id="path4319"
       inkscape:path-effect="#path-effect4321"
       inkscape:original-d="m 473.25647,342.01071 -1.51523,23.23351 -41.92133,-1.51523 4.54568,-21.2132 z" />
    <path
       style="fill:#000000;fill-rule:evenodd;stroke:none;stroke-width:1px;stroke-linecap:butt;stroke-linejoin:miter;stroke-opacity:1"
       d="m 465.73536,936.44653 c -9.6e-4,0.002 -0.009,0.0206 -0.01,0.0228 -0.009,0.0204 -0.0177,0.0408 -0.0265,0.0612 -0.0333,0.0765 -0.0669,0.15289 -0.10066,0.22918 l -10e-6,1e-5 c -0.12227,0.27608 -0.24708,0.55104 -0.37374,0.82514 l -1e-5,0 c -0.41069,0.88879 -0.84058,1.76878 -1.29331,2.63691 -0.54022,1.0359 -1.11071,2.05715 -1.74694,3.03701 l -1e-5,10e-6 0,0 c -0.54522,0.83969 -1.12369,1.67312 -1.87164,2.33866 l 0,0 c -0.54676,0.48651 -1.2018,0.83445 -1.85404,1.16645 l 0,0 0,0 c -1.0214,0.51991 -2.08364,0.95636 -3.1599,1.35035 l 0,0 c -3.00863,1.10141 -6.13728,1.864 -9.3037,2.35267 l 0,0 c -8.09362,1.24909 -16.65486,0.6219 -24.00735,-2.98473 -4.83952,-2.37393 -9.69256,-4.73729 -14.33974,-7.46863 -0.84467,-0.56338 -1.68934,-1.12677 -2.53402,-1.69015 4.3884,-4.28626 8.77708,-8.57213 13.16576,-12.858 0,0 0,0 0,0 3.35802,1.74402 6.71603,3.48804 10.07405,5.23206 0.01,0.006 0.0194,0.0124 0.029,0.0185 0.0265,0.0168 0.053,0.0334 0.0797,0.0499 0.0996,0.0617 0.20009,0.12195 0.3011,0.18133 0,0 0,0 0,0 0.35874,0.21088 0.72413,0.41038 1.09433,0.60043 0,0 0,0 0,10e-6 1.14076,0.58564 2.32827,1.08571 3.55971,1.44333 0,0 0,0 0,0 1.37752,0.40004 2.83191,0.63479 4.24969,0.41686 1.43032,-0.21986 2.76063,-1.03241 3.57398,-2.22933 l 0,-10e-6 c 1.51862,-2.23478 3.1009,-4.42647 4.75014,-6.56667 l 0,0 1e-5,-10e-6 c 0.47649,-0.61833 0.95857,-1.2324 1.44895,-1.83978 0,0 0,0 0,0 0,0 1e-5,-10e-6 1e-5,-10e-6 0.13189,-0.16336 0.26439,-0.32625 0.39791,-0.48828 0.0351,-0.0425 0.0702,-0.085 0.10544,-0.12741 0.0128,-0.0153 0.0258,-0.0309 0.0386,-0.0462 l 17.75312,14.3363"
       id="path4175"
       inkscape:path-effect="#path-effect4177"
       inkscape:original-d="m 465.7354,936.44643 c 0,0 -2.98487,6.98183 -5.42269,9.15105 -2.99548,2.66542 -22.40989,9.69159 -38.32499,1.88474 -15.9151,-7.80684 -16.87404,-9.15917 -16.87404,-9.15917 l 13.16604,-12.85761 10.07405,5.23206 c 0,0 9.17394,5.94579 12.88747,0.481 3.71352,-5.46479 6.74115,-9.06851 6.74115,-9.06851 z"
       inkscape:connector-curvature="0"
       sodipodi:nodetypes="csscccscc" />
  </g>
</svg>
